<svg xmlns="http://www.w3.org/2000/svg" clip-rule="evenodd" fill-rule="evenodd" height="7600" image-rendering="optimizeQuality" shape-rendering="geometricPrecision" text-rendering="geometricPrecision" width="7600"><rect id="backgroundrect" width="100%" height="100%" x="0" y="0" fill="none" stroke="none"/><g class="currentLayer" style=""><title>Layer 1</title><path d="M6175 0H1425C638 0 0 638 0 1425v4750c0 787 638 1425 1425 1425h4750c787 0 1425-638 1425-1425V1425C7600 638 6962 0 6175 0zm-193 4093h-711v2632H4083V4093h-461v-887h461v-565c0-740 308-1180 1180-1180h884v883h-514c-340 0-362 127-362 363l-1 498h808l-97 887z" id="svg_1" class="selected" fill="#ffffff" fill-opacity="1"/></g></svg>