<svg xmlns="http://www.w3.org/2000/svg" xmlns:xlink="http://www.w3.org/1999/xlink" width="256" height="256" version="1.1" preserveAspectRatio="xMidYMid" style=""><rect id="backgroundrect" width="100%" height="100%" x="0" y="0" fill="none" stroke="none"/>
    
<g class="currentLayer" style=""><title>Layer 1</title><g id="svg_1" class="" fill="#ffffff" fill-opacity="1" stroke="#ffffff" stroke-opacity="1">
        <path d="M128.59498337430574,24.84924057319641 C162.7726223743057,24.84924057319641 166.82063037430572,24.97931327319641 180.31771337430573,25.595126673196404 C192.79758737430572,26.164703173196415 199.57509037430572,28.249932373196415 204.08597337430572,30.002358273196407 C210.06017537430571,32.32436067319641 214.32463237430574,35.09856917319641 218.80350537430573,39.57744247319641 C223.28237837430572,44.05631577319642 226.05658737430574,48.32077227319641 228.37808137430574,54.29497437319641 C230.13101537430572,58.80585777319641 232.21624437430572,65.58336097319642 232.78582137430573,78.06272657319641 C233.40163437430573,91.56031807319641 233.5317073743057,95.60832527319641 233.5317073743057,129.78596457319642 C233.5317073743057,163.96360357319642 233.40163437430573,168.0116115731964 232.78582137430573,181.5086945731964 C232.21624437430572,193.9885685731964 230.13101537430572,200.76607157319643 228.37808137430574,205.2769545731964 C226.05658737430574,211.2511565731964 223.28237837430572,215.51561357319645 218.80350537430573,219.9944865731964 C214.32463237430574,224.47335957319638 210.06017537430571,227.24756857319642 204.08597337430572,229.56906257319645 C199.57509037430572,231.32199657319643 192.79758737430572,233.40722657319645 180.31771337430573,233.97680257319644 C166.82266237430574,234.59261557319644 162.77465537430575,234.72268857319642 128.59498337430574,234.72268857319642 C94.41531157430572,234.72268857319642 90.36730437430573,234.59261557319644 76.87225337430573,233.97680257319644 C64.39237977430572,233.40722657319645 57.61487647430573,231.32199657319643 53.104501174305724,229.56906257319645 C47.129790974305735,227.24756857319642 42.865334474305726,224.47335957319638 38.38646117430572,219.9944865731964 C33.907587874305726,215.51561357319645 31.133379374305733,211.2511565731964 28.81188507430572,205.2769545731964 C27.058951174305733,200.76607157319643 24.973721874305724,193.9885685731964 24.404145374305728,181.5092025731964 C23.78833197430572,168.0116115731964 23.65825927430572,163.96360357319642 23.65825927430572,129.78596457319642 C23.65825927430572,95.60832527319641 23.78833197430572,91.56031807319641 24.404145374305728,78.0632346731964 C24.973721874305724,65.58336097319642 27.058951174305733,58.80585777319641 28.81188507430572,54.29497437319641 C31.133379374305733,48.32077227319641 33.907587874305726,44.05631577319642 38.38646117430572,39.57744247319641 C42.865334474305726,35.09856917319641 47.129790974305735,32.32436067319641 53.104501174305724,30.002358273196407 C57.61487647430573,28.249932373196415 64.39237977430572,26.164703173196415 76.87174527430572,25.595126673196404 C90.36933677430572,24.97931327319641 94.41734397430572,24.84924057319641 128.59498337430574,24.84924057319641 M128.59498337430574,1.7857105731964111 C93.83201647430573,1.7857105731964111 89.47356207430572,1.933058645196411 75.82100107430573,2.555985322196406 C62.19638537430572,3.1778958031964066 52.89211677430572,5.34137198319641 44.74986547430572,8.50579885319641 C36.332733974305725,11.776926053196405 29.194481974305724,16.1536718731964 22.07858627430572,23.26956757319641 C14.962690574305725,30.385463273196407 10.585944764305722,37.52371517319642 7.314817564305728,45.94084677319641 C4.1503906843057266,54.08309807319641 1.9869145143057239,63.38736667319641 1.3650040273057265,77.01198237319642 C0.742077349305724,90.66403527319642 0.5952373743057251,95.02299777319641 0.5952373743057251,129.78596457319642 C0.5952373743057251,164.5489315731964 0.742077349305724,168.90789357319642 1.3650040273057265,182.5599465731964 C1.9869145143057239,196.18456257319644 4.1503906843057266,205.48883157319642 7.314817564305728,213.6310825731964 C10.585944764305722,222.04770557319642 14.962690574305725,229.18646557319641 22.07858627430572,236.30236157319644 C29.194481974305724,243.4182575731964 36.332733974305725,247.79500357319642 44.74986547430572,251.0661305731964 C52.89211677430572,254.2305575731964 62.19638537430572,256.39403357319645 75.82100107430573,257.0159435731964 C89.47356207430572,257.6388705731964 93.83201647430573,257.7857105731964 128.59498337430574,257.7857105731964 C163.35795037430572,257.7857105731964 167.71691237430574,257.6388705731964 181.36896537430573,257.0159435731964 C194.99358137430573,256.39403357319645 204.29785037430574,254.2305575731964 212.44010137430573,251.0661305731964 C220.85723237430574,247.79500357319642 227.99548437430573,243.4182575731964 235.11138037430572,236.30236157319644 C242.2272763743057,229.18646557319641 246.6040223743057,222.04821357319645 249.8751493743057,213.6310825731964 C253.03957637430574,205.48883157319642 255.20305237430568,196.18456257319644 255.82496237430576,182.5599465731964 C256.44788937430576,168.90789357319642 256.5952373743057,164.5489315731964 256.5952373743057,129.78596457319642 C256.5952373743057,95.02299777319641 256.44788937430576,90.66403527319642 255.82496237430576,77.01198237319642 C255.20305237430568,63.38736667319641 253.03957637430574,54.08309807319641 249.8751493743057,45.94084677319641 C246.6040223743057,37.52371517319642 242.2272763743057,30.385463273196407 235.11138037430572,23.26956757319641 C227.99548437430573,16.1536718731964 220.85723237430574,11.776926053196405 212.44010137430573,8.50579885319641 C204.29785037430574,5.34137198319641 194.99358137430573,3.1778958031964066 181.36896537430573,2.555985322196406 C167.71691237430574,1.933058645196411 163.35795037430572,1.7857105731964111 128.59498337430574,1.7857105731964111 zM128.59498337430574,64.0560220731964 C92.29349937430572,64.0560220731964 62.865040774305726,93.48448057319641 62.865040774305726,129.78596457319642 C62.865040774305726,166.0874485731964 92.29349937430572,195.5159075731964 128.59498337430574,195.5159075731964 C164.89646737430573,195.5159075731964 194.32492637430573,166.0874485731964 194.32492637430573,129.78596457319642 C194.32492637430573,93.48448057319641 164.89646737430573,64.0560220731964 128.59498337430574,64.0560220731964 zM128.59498337430574,172.4528855731964 C105.03097837430572,172.4528855731964 85.92806257430573,153.3499695731964 85.92806257430573,129.78596457319642 C85.92806257430573,106.22195957319641 105.03097837430572,87.1190438731964 128.59498337430574,87.1190438731964 C152.15898837430572,87.1190438731964 171.26190437430571,106.22195957319641 171.26190437430571,129.78596457319642 C171.26190437430571,153.3499695731964 152.15898837430572,172.4528855731964 128.59498337430574,172.4528855731964 zM212.28157537430573,61.45913927319641 C212.28157537430573,69.94232347319641 205.40499237430572,76.81941367319641 196.92180837430573,76.81941367319641 C188.43862437430573,76.81941367319641 181.56153437430572,69.94232347319641 181.56153437430572,61.45913927319641 C181.56153437430572,52.97595507319642 188.43862437430573,46.09937297319641 196.92180837430573,46.09937297319641 C205.40499237430572,46.09937297319641 212.28157537430573,52.97595507319642 212.28157537430573,61.45913927319641 z" fill="#ffffff" id="svg_2" fill-opacity="1" stroke="#ffffff" stroke-opacity="1"/>
    </g></g></svg>